<!-- Generated by IcoMoon.io -->
<svg version="1.1" xmlns="http://www.w3.org/2000/svg" width="1024" height="1024" viewBox="0 0 1024 1024">
<title></title>
<g id="icomoon-ignore">
</g>
<path fill="#168de2" d="M494.293 224.725c78.251 0 151.808 34.603 205.824 88.747v0.171c0-25.984 17.493-45.568 41.771-45.568h6.187c38.016 0 45.781 35.925 45.781 47.317l0.213 404.267c-2.688 26.496 27.307 40.149 43.904 23.168 64.896-66.731 142.592-342.955-40.363-503.040-170.496-149.205-399.232-124.629-520.917-40.747-129.323 89.216-212.096 286.635-131.669 472.064 87.637 202.24 338.389 262.485 487.424 202.411 75.477-30.507 110.336 71.509 31.957 104.832-118.443 50.517-448.085 45.397-602.027-221.355-104.064-180.096-98.517-497.024 177.408-661.205 211.072-125.568 489.387-90.795 657.152 84.437 175.403 183.211 165.205 526.251-5.931 659.669-77.483 60.587-192.683 1.579-191.915-86.656l-0.811-28.928c-53.973 53.589-125.781 84.821-204.032 84.821-154.667 0-290.688-136.064-290.688-290.645 0-156.117 136.064-293.76 290.731-293.76zM688.896 507.307c-5.845-113.195-89.856-181.291-191.317-181.291h-3.84c-117.12 0-182.101 92.117-182.101 196.693 0 117.205 78.592 191.189 181.589 191.189 114.901 0 190.464-84.181 195.925-183.723l-0.256-22.869z"></path>
</svg>
